<?xml version="1.0" standalone="no"?>
<!DOCTYPE svg PUBLIC "-//W3C//DTD SVG 20010904//EN"
 "http://www.w3.org/TR/2001/REC-SVG-20010904/DTD/svg10.dtd">
<svg version="1.0" xmlns="http://www.w3.org/2000/svg"
 width="225.000000pt" height="225.000000pt" viewBox="0 0 225.000000 225.000000"
 preserveAspectRatio="xMidYMid meet">
<metadata>
Created by potrace 1.14, written by Peter Selinger 2001-2017
</metadata>
<g transform="translate(0.000000,225.000000) scale(0.100000,-0.100000)"
fill="#000000" stroke="none">
<path d="M965 2170 c-95 -14 -210 -51 -310 -100 -337 -165 -562 -511 -581
-890 -27 -529 326 -983 847 -1091 143 -29 339 -23 479 16 366 103 649 391 747
760 23 87 26 120 27 255 0 179 -12 247 -72 398 -68 174 -192 338 -335 444
-147 109 -285 171 -453 203 -82 16 -261 18 -349 5z m-305 -1190 c3 -41 9 -81
13 -87 12 -18 73 -16 91 3 12 11 16 36 16 90 0 67 2 74 20 74 18 0 20 -7 20
-80 0 -73 -3 -83 -25 -105 -35 -36 -115 -36 -150 0 -22 22 -25 32 -25 105 0
72 2 81 18 78 14 -3 18 -17 22 -78z m380 74 c38 -8 58 -41 41 -72 -8 -15 -7
-27 3 -47 17 -32 10 -62 -15 -76 -11 -5 -52 -9 -92 -7 l-72 3 -3 89 c-2 49 -1
95 2 103 6 14 79 18 136 7z m308 -11 c-3 -15 -16 -19 -66 -21 -58 -3 -62 -4
-62 -27 0 -23 4 -25 50 -25 39 0 48 -3 44 -14 -3 -9 -23 -16 -47 -18 -37 -3
-42 -6 -45 -30 l-3 -28 66 0 c49 0 66 -3 63 -12 -3 -9 -32 -14 -86 -16 l-82
-3 0 99 c0 54 3 102 7 105 3 4 42 7 85 7 70 0 79 -2 76 -17z m259 -9 c19 -26
16 -68 -7 -89 -20 -18 -20 -18 0 -50 25 -40 25 -45 0 -45 -13 0 -27 14 -40 41
-19 36 -24 40 -53 37 -29 -3 -32 -6 -35 -40 -3 -30 -7 -38 -23 -38 -17 0 -19
8 -19 98 0 54 3 102 8 106 4 5 40 6 81 3 57 -3 77 -9 88 -23z"/>
<path d="M947 1023 c-4 -3 -7 -17 -7 -30 0 -21 4 -23 49 -23 55 0 77 24 45 47
-19 14 -76 18 -87 6z"/>
<path d="M947 934 c-4 -4 -7 -18 -7 -31 0 -21 4 -23 56 -23 54 0 55 0 52 28
-3 24 -7 27 -48 30 -25 2 -49 0 -53 -4z"/>
<path d="M1477 1023 c-4 -3 -7 -19 -7 -35 0 -29 1 -29 52 -26 43 2 54 7 56 22
3 11 -4 26 -14 33 -19 14 -76 18 -87 6z"/>
</g>
</svg>
